<?xml version="1.0" standalone="no"?><!DOCTYPE svg PUBLIC "-//W3C//DTD SVG 1.1//EN" "http://www.w3.org/Graphics/SVG/1.1/DTD/svg11.dtd"><svg t="1513154262901" class="icon" style="" viewBox="0 0 1024 1024" version="1.1" xmlns="http://www.w3.org/2000/svg" p-id="1467" xmlns:xlink="http://www.w3.org/1999/xlink" width="200" height="200"><defs><style type="text/css"></style></defs><path d="M503.759 1017.907c-21.38-94.387-90.995-116.686-164.455-145.811C136.495 791.671 30.568 580.67 73.26 363.211 112.513 163.256 297.372 10.063 504.118 6.173c220.991-4.158 412.05 156.395 449.5 377.735 37.323 220.559-89.629 436.077-302.842 500.888-58.8 17.873-99.27 44.247-122.354 99.694-3.783 9.086-11.873 16.386-24.663 33.417z" fill="#E33431" p-id="1468"></path><path d="M435.734 287.307H323.968v407.691h111.767V287.307z m-19.139 58.35h-73.386v-37.573h73.386v37.573zM580.124 351.526V241.477H476.097v465.89h104.027V364.191l-3.731-11.449 3.731-1.216z m-15.361-55.779h-70.999v-36.32h70.999v36.32zM580.124 351.526v12.665l107.285 329.245 93.455-30.449-111.015-340.695-89.725 29.234z m28.295 44.721l-10.231-31.398 61.324-19.981 10.233 31.398-61.326 19.981z" fill="#FFFFFF" p-id="1469"></path><path d="M576.393 352.742l3.731 11.449v-12.665z" fill="#4F6283" p-id="1470"></path></svg>